#N canvas 37 0 1403 841 12;
#N canvas 0 50 450 250 (subpatch) 0;
#X array audioData 220500 float 2;
#X coords 0 1 220500 -1 200 140 1 0 0;
#X restore 35 162 graph;
#X obj 478 287 adc~;
#X obj 475 319 *~;
#X obj 476 351 tabwrite~ audioData;
#X obj 413 338 vu 20 200 empty empty -1 -10 0 12 #feffc6 #000000 1 0;
#X obj 406 266 env~;
#X msg 586 386 start;
#X msg 530 391 stop;
#X obj 570 135 tgl 45 0 empty empty S-Record\ Start/Stop 0 -10 0 16 #ff0400 #000000 #000000 0 1;
#X obj 610 300 sel 1;
#X obj 624 337 bng 20 250 50 0 empty empty empty 0 -10 0 12 #fcfcfc #000000 #000000;
#X obj 660 337 bng 20 250 50 0 empty empty empty 0 -10 0 12 #fcfcfc #000000 #000000;
#X obj 648 372 timer;
#X floatatom 691 300 10 0 0 0 - - - 16;
#X obj 791 455 tabread4~ audioData;
#X obj 1093 578 dac~;
#X obj 718 447 phasor~;
#X obj 781 430 *~;
#X obj 727 333 t f f;
#X obj 633 414 expr 1000 / $f1;
#X msg 808 269 0;
#X msg 674 267 0;
#X obj 670 154 bng 35 250 50 0 empty empty D-Play 0 -10 0 16 #ff0400 #000000 #000000;
#X obj 952 144 bng 35 250 50 0 empty empty X-Kill 0 -10 0 16 #ff0400 #000000 #000000;
#X msg 722 266 0;
#X msg 768 269 1;
#X obj 770 142 bng 45 250 50 0 empty empty A-Erase 0 -10 0 16 #ff0400 #000000 #000000;
#X obj 855 144 bng 45 250 50 0 empty empty Z-Overdub 0 -10 0 16 #ff0400 #000000 #000000;
#X obj 701 14 key;
#X floatatom 718 43 5 0 0 0 - - - 0;
#X obj 409 297 - 90;
#X obj 789 486 sigpack/decimate~ \$1 16;
#X msg 222 104 \; pd dsp \$1;
#X obj 220 20 tgl 50 0 empty empty empty 17 7 0 10 #ff0400 #000000 #000000 0 1;
#X text 234 73 DSP on/off;
#X obj 586 446 spigot~;
#X floatatom 785 403 24 0 0 2 CHECK\ ME - - 16;
#X obj 736 370 *;
#X obj 199 638 openpanel;
#X obj 202 611 bng 20 250 50 0 empty empty Open\ and\ Resize 0 -10 0 12 #00ff04 #000000 #000000;
#X obj 201 689 soundfiler;
#X floatatom 198 712 24 0 0 0 - - - 0;
#X obj 199 736 / 44.1;
#X obj 1299 605 vu 20 200 empty empty -1 -10 0 12 #feffc6 #000000 1 0;
#X obj 1292 533 env~;
#X obj 1295 564 - 90;
#X obj 51 82 bng 20 250 50 0 empty empty empty 0 -10 0 12 #00faff #000000 #000000;
#X msg 37 107 \; audioData normalize;
#X obj 412 631 openpanel;
#X obj 413 604 bng 20 250 50 0 empty empty Open 0 -10 0 12 #00ff04 #000000 #000000;
#X obj 414 679 soundfiler;
#X floatatom 406 706 24 0 0 0 - - - 0;
#X obj 413 730 / 44.1;
#X msg 413 655 read \$1 audioData;
#X msg 200 662 read -resize \$1 audioData;
#X obj 33 556 soundfiler;
#X msg 26 530 write \$1 audioData;
#X obj 47 447 bng 20 250 50 0 empty empty Save\ Sample 0 -10 0 14 #00faff #000000 #000000;
#X obj 33 358 bng 20 250 50 0 empty empty empty 0 -10 0 12 #fcfcfc #000000 #000000;
#X floatatom 34 387 24 0 0 0 - - - 0;
#X obj 62 359 array size audioData;
#X obj 33 330 bng 20 250 50 0 empty empty Set\ 10\ seconds 0 -10 0 12 #00faff #000000 #000000;
#X msg 65 331 441000;
#X obj 1032 515 bp~ 1000 100;
#X obj 1052 548 *~;
#X obj 39 505 makefilename ./sample/%s.wav;
#N canvas 646 183 698 499 datetime 0;
#X obj 23 136 date, f 15;
#X obj 360 173 time, f 18;
#X obj 26 24 inlet;
#X obj 33 85 t b b;
#X obj 51 177 makefilename %02d;
#X obj 195 178 makefilename %02d;
#X obj 64 314 makesymbol %s%s%s_%s%s%s;
#X obj 53 376 outlet;
#X obj 70 261 pack float symbol symbol float float float;
#X connect 0 0 8 0;
#X connect 0 1 4 0;
#X connect 0 2 5 0;
#X connect 1 0 8 3;
#X connect 1 1 8 4;
#X connect 1 2 8 5;
#X connect 2 0 3 0;
#X connect 3 0 0 0;
#X connect 3 1 1 0;
#X connect 4 0 8 1;
#X connect 5 0 8 2;
#X connect 6 0 7 0;
#X connect 8 0 6 0;
#X restore 35 477 pd datetime;
#X obj 864 280 bng 40 250 50 0 empty empty empty 0 -10 0 12 #ff8300 #000000 #000000;
#X obj 1072 749 soundfiler;
#X obj 1097 644 bng 20 250 50 0 empty empty Save\ New\ Sample 0 -10 0 14 #9c00ff #000000 #000000;
#X obj 1071 700 makefilename ./sample/%s.wav;
#N canvas 646 183 698 499 datetime 0;
#X obj 23 136 date, f 15;
#X obj 360 173 time, f 18;
#X obj 26 24 inlet;
#X obj 33 85 t b b;
#X obj 51 177 makefilename %02d;
#X obj 195 178 makefilename %02d;
#X obj 64 314 makesymbol %s%s%s_%s%s%s;
#X obj 53 376 outlet;
#X obj 70 261 pack float symbol symbol float float float;
#X connect 0 0 8 0;
#X connect 0 1 4 0;
#X connect 0 2 5 0;
#X connect 1 0 8 3;
#X connect 1 1 8 4;
#X connect 1 2 8 5;
#X connect 2 0 3 0;
#X connect 3 0 0 0;
#X connect 3 1 1 0;
#X connect 4 0 8 1;
#X connect 5 0 8 2;
#X connect 6 0 7 0;
#X connect 8 0 6 0;
#X restore 1080 674 pd datetime;
#X msg 1083 725 write \$1 audioData2;
#N canvas 0 50 450 250 (subpatch) 0;
#X array audioData2 220500 float 2;
#X coords 0 1 220500 -1 200 140 1 0 0;
#X restore 641 551 graph;
#X obj 893 688 tabwrite~ audioData2;
#X msg 953 659 start;
#X obj 989 628 bng 20 250 50 0 empty empty Space\ Rec 0 -10 0 12 #9c00ff #000000 #000000;
#X obj 889 718 bng 20 250 50 0 empty empty empty 0 -10 0 12 #9c00ff #000000 #000000;
#X msg 896 752 \; audioData2 normalize;
#N canvas 282 160 902 559 speed 0;
#X obj 94 44 key;
#X floatatom 115 81 5 0 0 0 - - - 0;
#X msg 102 170 44.1;
#X msg 228 182 11;
#X msg 187 178 22;
#X obj 209 361 outlet;
#X obj 161 284 hsl 110 35 44.1 5 0 0 empty empty Q-W-E-R-T\ Speed -2 -10 0 12 #faff00 #000000 #000000 0 1;
#X obj 118 127 select 113 119 101 114 116;
#X msg 144 177 33;
#X msg 269 181 5.5;
#X obj 30 108 r reset;
#X connect 0 0 1 0;
#X connect 1 0 7 0;
#X connect 2 0 6 0;
#X connect 3 0 6 0;
#X connect 4 0 6 0;
#X connect 6 0 5 0;
#X connect 7 0 2 0;
#X connect 7 1 8 0;
#X connect 7 2 4 0;
#X connect 7 3 3 0;
#X connect 7 4 9 0;
#X connect 8 0 6 0;
#X connect 9 0 6 0;
#X connect 10 0 2 0;
#X coords 0 -1 1 1 135 95 2 150 245;
#X restore 921 234 pd speed;
#N canvas 37 0 1403 841 frequency 0;
#X obj 113 20 key;
#X floatatom 117 48 5 0 0 0 - - - 0;
#X obj 83 255 hsl 170 45 500 14000 0 0 empty empty C-V-B-N-M\ BandPass 0 -15 0 16 #faff00 #000000 #000000 0 1;
#X msg 155 134 5000;
#X msg 102 135 2000;
#X msg 53 128 750;
#X msg 265 137 12000;
#X msg 201 144 9000, f 6;
#X obj 63 486 outlet;
#X obj 139 333 hsl 120 45 0 24 0 0 empty empty O~P\ -dB 0 -15 0 16 #faff00 #000000 #000000 0 1;
#X obj 155 483 outlet;
#X obj 348 135 bng 20 250 50 0 empty empty empty 0 -10 0 12 #fcfcfc #000000 #000000;
#X obj 346 161 f;
#X obj 335 235 spigot;
#X obj 405 156 f;
#X obj 396 231 spigot;
#X obj 408 133 bng 20 250 50 0 empty empty empty 0 -10 0 12 #fcfcfc #000000 #000000;
#X obj 86 83 select 99 118 98 110 109 111 112;
#X obj 351 210 > 1;
#X obj 354 27 r reset;
#X obj 342 188 - 1;
#X obj 401 180 + 1;
#X obj 407 204 < 24;
#X msg 311 332 4;
#X connect 0 0 1 0;
#X connect 1 0 17 0;
#X connect 2 0 8 0;
#X connect 3 0 2 0;
#X connect 4 0 2 0;
#X connect 5 0 2 0;
#X connect 6 0 2 0;
#X connect 7 0 2 0;
#X connect 9 0 10 0;
#X connect 9 0 12 1;
#X connect 9 0 14 1;
#X connect 11 0 12 0;
#X connect 12 0 20 0;
#X connect 13 0 9 0;
#X connect 14 0 21 0;
#X connect 15 0 9 0;
#X connect 16 0 14 0;
#X connect 17 0 5 0;
#X connect 17 1 4 0;
#X connect 17 2 3 0;
#X connect 17 3 7 0;
#X connect 17 4 6 0;
#X connect 17 5 11 0;
#X connect 17 6 16 0;
#X connect 18 0 13 1;
#X connect 19 0 7 0;
#X connect 19 0 23 0;
#X connect 20 0 13 0;
#X connect 20 0 18 0;
#X connect 21 0 15 0;
#X connect 21 0 22 0;
#X connect 22 0 15 1;
#X connect 23 0 9 0;
#X coords 0 -1 1 1 215 200 2 68 205;
#X restore 1159 304 pd frequency;
#N canvas 37 0 1403 841 crunch 0;
#X obj 29 20 key;
#X floatatom 29 48 5 0 0 0 - - - 0;
#X floatatom 88 253 8 0 1 2 G-H-J-K-L\ Decimate - - 16;
#X msg 54 152 1;
#X msg 119 149 0.5;
#X msg 168 151 0.25;
#X msg 277 147 0.125;
#X msg 333 152 0.0625;
#X obj 80 331 outlet;
#X obj 25 83 select 103 104 106 107 108, f 66;
#X obj 115 22 r reset;
#X connect 0 0 1 0;
#X connect 1 0 9 0;
#X connect 2 0 8 0;
#X connect 3 0 2 0;
#X connect 4 0 2 0;
#X connect 5 0 2 0;
#X connect 6 0 2 0;
#X connect 7 0 2 0;
#X connect 9 0 3 0;
#X connect 9 1 4 0;
#X connect 9 2 5 0;
#X connect 9 3 6 0;
#X connect 9 4 7 0;
#X connect 10 0 3 0;
#X coords 0 -1 1 1 230 75 2 75 215;
#X restore 1151 94 pd crunch;
#N canvas 37 0 1403 841 volume 0;
#X obj 20 12 key;
#X floatatom 24 38 5 0 0 0 - - - 0;
#X obj 32 145 bng 20 250 50 0 empty empty empty 0 -10 0 12 #fcfcfc #000000 #000000;
#X obj 30 171 f;
#X obj 19 245 spigot;
#X obj 89 166 f;
#X obj 80 241 spigot;
#X obj 92 143 bng 20 250 50 0 empty empty empty 0 -10 0 12 #fcfcfc #000000 #000000;
#X obj 25 197 - 0.1;
#X obj 85 190 + 0.1;
#X obj 37 335 hsl 170 50 1 6 0 1 gs gr 3~4\ Volume 0 -10 0 16 #faff00 #000000 #000000 6084 1;
#X obj 35 220 > 1;
#X obj 91 214 < 6;
#X obj 36 440 outlet;
#X obj 64 81 select 51 52, f 14;
#X obj 180 153 r reset;
#X msg 183 185 2.5;
#X connect 0 0 1 0;
#X connect 1 0 14 0;
#X connect 2 0 3 0;
#X connect 3 0 8 0;
#X connect 4 0 10 0;
#X connect 5 0 9 0;
#X connect 6 0 10 0;
#X connect 7 0 5 0;
#X connect 8 0 4 0;
#X connect 8 0 11 0;
#X connect 9 0 6 0;
#X connect 9 0 12 0;
#X connect 10 0 3 1;
#X connect 10 0 5 1;
#X connect 10 0 13 0;
#X connect 11 0 4 1;
#X connect 12 0 6 1;
#X connect 14 0 2 0;
#X connect 14 1 7 0;
#X connect 15 0 16 0;
#X connect 16 0 10 0;
#X coords 0 -1 1 1 210 100 2 20 300;
#X restore 1154 185 pd volume;
#N canvas 37 0 1403 841 gain 0;
#X obj 35 287 hsl 170 50 0 3 0 1 gs gr 1~2\ Gain 0 -10 0 16 #faff00 #000000 #000000 8450 1;
#X obj 33 15 key;
#X floatatom 31 42 5 0 0 0 - - - 0;
#X obj 45 121 bng 20 250 50 0 empty empty empty 0 -10 0 12 #fcfcfc #000000 #000000;
#X obj 40 146 f;
#X obj 40 194 > 0;
#X obj 25 218 spigot;
#X obj 98 143 f;
#X obj 91 220 spigot;
#X obj 105 119 bng 20 250 50 0 empty empty empty 0 -10 0 12 #fcfcfc #000000 #000000;
#X obj 102 195 < 3;
#X obj 31 170 - 0.2;
#X obj 94 169 + 0.2;
#X obj 24 374 outlet;
#X obj 29 71 select 49 50;
#X obj 206 149 r reset;
#X msg 201 192 1.5;
#X connect 0 0 4 1;
#X connect 0 0 7 1;
#X connect 0 0 13 0;
#X connect 1 0 2 0;
#X connect 2 0 14 0;
#X connect 3 0 4 0;
#X connect 4 0 11 0;
#X connect 5 0 6 1;
#X connect 6 0 0 0;
#X connect 7 0 12 0;
#X connect 8 0 0 0;
#X connect 9 0 7 0;
#X connect 10 0 8 1;
#X connect 11 0 5 0;
#X connect 11 0 6 0;
#X connect 12 0 8 0;
#X connect 12 0 10 0;
#X connect 14 0 3 0;
#X connect 14 1 9 0;
#X connect 15 0 16 0;
#X connect 16 0 0 0;
#X coords 0 -1 1 1 200 110 2 20 250;
#X restore 336 132 pd gain;
#X obj 672 74 select 115 100 97 122 120;
#X obj 642 742 bng 20 250 50 0 empty empty empty 0 -10 0 12 #fcfcfc #000000 #000000;
#X floatatom 643 771 24 0 0 0 - - - 0;
#X obj 642 714 bng 20 250 50 0 empty empty Set\ 5\ seconds 0 -10 0 12 #9c00ff #000000 #000000;
#X obj 766 713 bng 20 250 50 0 empty empty Set\ 3\ seconds 0 -10 0 12 #9c00ff #000000 #000000;
#X msg 798 714 132300;
#X msg 674 715 220500;
#X obj 671 743 array size audioData2;
#X obj 884 566 key;
#X floatatom 886 595 5 0 0 0 - - - 0;
#X obj 886 622 select 32;
#X obj 360 22 bng 40 250 50 0 empty empty empty 0 -10 0 12 #ff8300 #000000 #000000;
#X obj 358 74 s reset;
#X connect 1 0 2 0;
#X connect 2 0 3 0;
#X connect 2 0 5 0;
#X connect 5 0 30 0;
#X connect 6 0 3 0;
#X connect 7 0 3 0;
#X connect 8 0 9 0;
#X connect 9 0 10 0;
#X connect 9 1 11 0;
#X connect 10 0 6 0;
#X connect 10 0 12 0;
#X connect 11 0 7 0;
#X connect 11 0 12 1;
#X connect 12 0 13 0;
#X connect 13 0 18 0;
#X connect 14 0 35 0;
#X connect 14 0 31 0;
#X connect 16 0 17 0;
#X connect 17 0 14 0;
#X connect 18 0 19 0;
#X connect 18 1 37 0;
#X connect 19 0 16 0;
#X connect 20 0 16 0;
#X connect 21 0 16 1;
#X connect 22 0 21 0;
#X connect 22 0 19 0;
#X connect 23 0 20 0;
#X connect 24 0 35 1;
#X connect 25 0 35 1;
#X connect 26 0 24 0;
#X connect 27 0 25 0;
#X connect 28 0 29 0;
#X connect 29 0 84 0;
#X connect 30 0 4 0;
#X connect 31 0 63 0;
#X connect 33 0 32 0;
#X connect 35 1 3 0;
#X connect 36 0 17 1;
#X connect 37 0 36 0;
#X connect 38 0 54 0;
#X connect 39 0 38 0;
#X connect 40 0 41 0;
#X connect 41 0 42 0;
#X connect 42 0 13 0;
#X connect 44 0 45 0;
#X connect 45 0 43 0;
#X connect 46 0 47 0;
#X connect 48 0 53 0;
#X connect 49 0 48 0;
#X connect 50 0 51 0;
#X connect 51 0 52 0;
#X connect 52 0 13 0;
#X connect 53 0 50 0;
#X connect 54 0 40 0;
#X connect 56 0 55 0;
#X connect 57 0 66 0;
#X connect 58 0 60 0;
#X connect 60 0 59 0;
#X connect 61 0 62 0;
#X connect 62 0 60 0;
#X connect 63 0 64 0;
#X connect 64 0 15 0;
#X connect 64 0 15 1;
#X connect 64 0 44 0;
#X connect 64 0 74 0;
#X connect 65 0 56 0;
#X connect 66 0 65 0;
#X connect 67 0 13 0;
#X connect 69 0 71 0;
#X connect 70 0 72 0;
#X connect 71 0 70 0;
#X connect 72 0 68 0;
#X connect 75 0 74 0;
#X connect 76 0 75 0;
#X connect 77 0 78 0;
#X connect 79 0 37 1;
#X connect 80 0 63 1;
#X connect 80 1 63 2;
#X connect 81 0 31 1;
#X connect 82 0 64 1;
#X connect 83 0 2 1;
#X connect 84 0 8 0;
#X connect 84 1 22 0;
#X connect 84 2 26 0;
#X connect 84 3 27 0;
#X connect 84 4 23 0;
#X connect 85 0 91 0;
#X connect 87 0 90 0;
#X connect 88 0 89 0;
#X connect 89 0 91 0;
#X connect 90 0 91 0;
#X connect 91 0 86 0;
#X connect 92 0 93 0;
#X connect 93 0 94 0;
#X connect 94 0 75 0;
#X connect 95 0 96 0;
#X coords 0 841 1 840 10 10 0;
